<?xml version="1.0" encoding="UTF-8" standalone="no"?>
<!DOCTYPE svg PUBLIC "-//W3C//DTD SVG 1.1//EN"
 "http://www.w3.org/Graphics/SVG/1.1/DTD/svg11.dtd">
<!-- Generated by graphviz version 2.28.0 (20121114.0817)
 -->
<!-- Title: G Pages: 1 -->
<svg width="554pt" height="222pt"
 viewBox="0.00 0.00 554.00 222.00" xmlns="http://www.w3.org/2000/svg" xmlns:xlink="http://www.w3.org/1999/xlink">
<g id="graph1" class="graph" transform="scale(1 1) rotate(0) translate(4 218)">
<title>G</title>
<polygon fill="white" stroke="white" points="-4,5 -4,-218 551,-218 551,5 -4,5"/>
<g id="graph2" class="cluster"><title>cluster_global</title>
<polyline fill="none" stroke="gray" points="210,-8 526,-8 "/>
<path fill="none" stroke="gray" d="M526,-8C532,-8 538,-14 538,-20"/>
<polyline fill="none" stroke="gray" points="538,-20 538,-177 "/>
<path fill="none" stroke="gray" d="M538,-177C538,-183 532,-189 526,-189"/>
<polyline fill="none" stroke="gray" points="526,-189 210,-189 "/>
<path fill="none" stroke="gray" d="M210,-189C204,-189 198,-183 198,-177"/>
<polyline fill="none" stroke="gray" points="198,-177 198,-20 "/>
<path fill="none" stroke="gray" d="M198,-20C198,-14 204,-8 210,-8"/>
<text text-anchor="middle" x="368" y="-174" font-family="Times,serif" font-size="11.00" fill="gray">global</text>
</g>
<!-- \\Form_Container -->
<g id="node2" class="node"><title>\\Form_Container</title>
<a xlink:href="form.container.html" xlink:title="«abstract»&lt;br/&gt;Form_Container" target="_parent">
<polygon fill="none" stroke="black" points="315.5,-160 206.5,-160 206.5,-124 315.5,-124 315.5,-160"/>
<text text-anchor="start" x="228" y="-143.5" font-family="Courier,monospace" font-size="11.00">«abstract»</text>
<text text-anchor="start" x="215" y="-132.5" font-family="Courier,monospace" font-size="11.00">Form_Container</text>
</a>
</g>
<!-- \\ArrayAccess -->
<g id="node13" class="node"><title>\\ArrayAccess</title>
<ellipse fill="none" stroke="black" cx="67" cy="-196" rx="66.044" ry="18"/>
<text text-anchor="middle" x="67" y="-190.4" font-family="Times,serif" font-size="14.00" fill="gray">\\ArrayAccess</text>
</g>
<!-- \\Form_Container&#45;&gt;\\ArrayAccess -->
<g id="edge11" class="edge"><title>\\Form_Container&#45;&gt;\\ArrayAccess</title>
<path fill="none" stroke="black" stroke-dasharray="1,5" d="M206.262,-157.114C180.39,-164.39 149.403,-173.106 123.327,-180.439"/>
<polygon fill="none" stroke="black" points="122.273,-177.1 113.594,-183.177 124.168,-183.838 122.273,-177.1"/>
</g>
<!-- \\Countable -->
<g id="node15" class="node"><title>\\Countable</title>
<ellipse fill="none" stroke="black" cx="67" cy="-142" rx="56.1921" ry="18"/>
<text text-anchor="middle" x="67" y="-136.4" font-family="Times,serif" font-size="14.00" fill="gray">\\Countable</text>
</g>
<!-- \\Form_Container&#45;&gt;\\Countable -->
<g id="edge13" class="edge"><title>\\Form_Container&#45;&gt;\\Countable</title>
<path fill="none" stroke="black" stroke-dasharray="1,5" d="M206.262,-142C183.745,-142 157.353,-142 133.697,-142"/>
<polygon fill="none" stroke="black" points="133.396,-138.5 123.396,-142 133.396,-145.5 133.396,-138.5"/>
</g>
<!-- \\Iterator -->
<g id="node17" class="node"><title>\\Iterator</title>
<ellipse fill="none" stroke="black" cx="67" cy="-88" rx="44.6347" ry="18"/>
<text text-anchor="middle" x="67" y="-82.4" font-family="Times,serif" font-size="14.00" fill="gray">\\Iterator</text>
</g>
<!-- \\Form_Container&#45;&gt;\\Iterator -->
<g id="edge15" class="edge"><title>\\Form_Container&#45;&gt;\\Iterator</title>
<path fill="none" stroke="black" stroke-dasharray="1,5" d="M206.262,-126.886C177.214,-118.716 141.715,-108.732 113.961,-100.927"/>
<polygon fill="none" stroke="black" points="114.687,-97.495 104.113,-98.1567 112.792,-104.234 114.687,-97.495"/>
</g>
<!-- \\Form_Element -->
<g id="node3" class="node"><title>\\Form_Element</title>
<a xlink:href="form.element.html" xlink:title="Form_Element" target="_parent">
<polygon fill="none" stroke="black" points="506.713,-106 411.287,-106 411.287,-70 506.713,-70 506.713,-106"/>
<text text-anchor="middle" x="459" y="-83.6" font-family="Courier,monospace" font-size="11.00">Form_Element</text>
</a>
</g>
<!-- \\Form_Element&#45;&gt;\\Form_Container -->
<g id="edge3" class="edge"><title>\\Form_Element&#45;&gt;\\Form_Container</title>
<path fill="none" stroke="black" d="M411.053,-100.934C385.422,-107.996 353.328,-116.838 325.491,-124.507"/>
<polygon fill="none" stroke="black" points="324.552,-121.136 315.84,-127.166 326.411,-127.884 324.552,-121.136"/>
</g>
<!-- \\Form_Exception -->
<g id="node4" class="node"><title>\\Form_Exception</title>
<a xlink:href="form.exceptions.html" xlink:title="Form_Exception" target="_parent">
<polygon fill="none" stroke="black" points="315.416,-52 206.584,-52 206.584,-16 315.416,-16 315.416,-52"/>
<text text-anchor="middle" x="261" y="-29.6" font-family="Courier,monospace" font-size="11.00">Form_Exception</text>
</a>
</g>
<!-- \\Exception -->
<g id="node9" class="node"><title>\\Exception</title>
<ellipse fill="none" stroke="black" cx="67" cy="-34" rx="52.7417" ry="18"/>
<text text-anchor="middle" x="67" y="-28.4" font-family="Times,serif" font-size="14.00" fill="gray">\Exception</text>
</g>
<!-- \\Form_Exception&#45;&gt;\\Exception -->
<g id="edge5" class="edge"><title>\\Form_Exception&#45;&gt;\\Exception</title>
<path fill="none" stroke="black" d="M206.772,-34C182.972,-34 154.764,-34 130.015,-34"/>
<polygon fill="none" stroke="black" points="130.003,-30.5001 120.003,-34 130.003,-37.5001 130.003,-30.5001"/>
</g>
<!-- \\Form_Type_Exception -->
<g id="node5" class="node"><title>\\Form_Type_Exception</title>
<a xlink:href="form.exceptions.html" xlink:title="Form_Type_Exception" target="_parent">
<polygon fill="none" stroke="black" points="529.921,-52 388.079,-52 388.079,-16 529.921,-16 529.921,-52"/>
<text text-anchor="middle" x="459" y="-29.6" font-family="Courier,monospace" font-size="11.00">Form_Type_Exception</text>
</a>
</g>
<!-- \\Form_Type_Exception&#45;&gt;\\Form_Exception -->
<g id="edge7" class="edge"><title>\\Form_Type_Exception&#45;&gt;\\Form_Exception</title>
<path fill="none" stroke="black" d="M388.07,-34C367.661,-34 345.478,-34 325.49,-34"/>
<polygon fill="none" stroke="black" points="325.26,-30.5001 315.26,-34 325.26,-37.5001 325.26,-30.5001"/>
</g>
<!-- \\Form -->
<g id="node6" class="node"><title>\\Form</title>
<a xlink:href="form.html" xlink:title="Form" target="_parent">
<polygon fill="none" stroke="black" points="486,-160 432,-160 432,-124 486,-124 486,-160"/>
<text text-anchor="middle" x="459" y="-137.6" font-family="Courier,monospace" font-size="11.00">Form</text>
</a>
</g>
<!-- \\Form&#45;&gt;\\Form_Container -->
<g id="edge9" class="edge"><title>\\Form&#45;&gt;\\Form_Container</title>
<path fill="none" stroke="black" d="M431.973,-142C405.056,-142 361.995,-142 325.952,-142"/>
<polygon fill="none" stroke="black" points="325.505,-138.5 315.505,-142 325.505,-145.5 325.505,-138.5"/>
</g>
</g>
</svg>
